<?xml version="1.0" encoding="UTF-8"?>
<!-- Generator: Adobe Illustrator 15.0.0, SVG Export Plug-In . SVG Version: 6.00 Build 0)  -->
<!DOCTYPE svg PUBLIC "-//W3C//DTD SVG 1.1//EN"
          "http://www.w3.org/Graphics/SVG/1.1/DTD/svg11.dtd">
<!-- Original source: https://commons.wikimedia.org/wiki/File:Tango-style_question_icon.svg -->
<!-- Original size was 32 px by 32 px.  Using the <g> element to resize to 16x16. -->
<svg version="1.1" id="Layer_1"
     xmlns="http://www.w3.org/2000/svg"
     xmlns:xlink="http://www.w3.org/1999/xlink"
     x="0px" y="0px" width="16px" height="16px"
     viewBox="0 0 16 16"
     enable-background="new 0 0 16 16"
     xml:space="preserve">
<g transform="scale(0.5)">
	
	<radialGradient id="path21642_2_" cx="-21.335" cy="-473.2358" r="14.5723" gradientTransform="matrix(0.893 0 0 -0.2717 35.3554 -100.5359)" gradientUnits="userSpaceOnUse">
		<stop offset="0" style="stop-color:#000000"/>
		<stop offset="1" style="stop-color:#000000;stop-opacity:0"/>
	</radialGradient>
	
	<path id="path21642_1_" rx="15.750000" cx="25.125000" type="arc" ry="9.3750000" cy="36.750000" opacity="0.6307" fill="url(#path21642_2_)" enable-background="new    " d="   M29.309,28.036c0,2.187-5.838,3.963-13.006,3.963c-7.184,0-13.002-1.776-13.002-3.963c0-2.184,5.818-3.96,13.002-3.96   C23.471,24.076,29.309,25.852,29.309,28.036z"/>
	
	<radialGradient id="path2093_2_" cx="-15.5312" cy="77.1255" r="20.6837" gradientTransform="matrix(0.8841 0.0043 0.0046 -0.9649 30.5057 92.9265)" gradientUnits="userSpaceOnUse">
		<stop offset="0" style="stop-color:#9CBCDE"/>
		<stop offset="1" style="stop-color:#204A87"/>
	</radialGradient>
	
	<path id="path2093_1_" rx="21.876116" cx="23.909048" type="arc" ry="21.876116" cy="23.825787" fill="url(#path2093_2_)" stroke="#3465A4" stroke-width="0.7032" d="   M30.395,15.107c0.003,7.981-6.469,14.442-14.434,14.446C7.983,29.555,1.523,23.088,1.52,15.112c0-0.003,0-0.005,0-0.005   C1.517,7.134,7.983,0.673,15.95,0.67C23.922,0.668,30.391,7.134,30.395,15.107L30.395,15.107z"/>
	
	<path id="path2209_1_" rx="21.876116" cx="23.909048" type="arc" ry="21.876116" cy="23.825787" opacity="0.9602" fill="none" stroke="#FFFFFF" stroke-width="0.9023" enable-background="new    " d="   M29.111,15.107c0,7.276-5.894,13.17-13.151,13.17c-7.272,0-13.159-5.895-13.162-13.162c0-0.003,0-0.007,0-0.008   C2.796,7.85,8.688,1.96,15.95,1.96C23.218,1.957,29.111,7.843,29.111,15.107L29.111,15.107z"/>
	
	<radialGradient id="SVGID_1_" cx="15.5352" cy="20.9282" r="39.8973" gradientTransform="matrix(0.7323 0 0 0.7607 5.2747 4.3829)" gradientUnits="userSpaceOnUse">
		<stop offset="0" style="stop-color:#FFFFFF"/>
		<stop offset="1" style="stop-color:#B8B8B8"/>
	</radialGradient>
	<path fill="url(#SVGID_1_)" d="M16.14,6.289c-0.715,0-1.459,0.084-2.235,0.24c-0.775,0.155-1.635,0.38-2.565,0.705   c-0.015,0-0.015,0-0.028,0c-0.003,0-0.014,0.014-0.014,0.016c-0.014,0.012-0.018,0.012-0.028,0.026c0,0.004,0,0.014,0,0.02   c0,0.008,0,0.016,0,0.023v3.604c0,0.005,0,0.016,0,0.019c0,0.011,0,0.014,0,0.025c0.011,0.003,0.014,0.018,0.028,0.018   c0,0.014,0.011,0.014,0.014,0.028c0.014,0,0.014,0,0.028,0h0.014c0.014,0,0.014,0,0.028,0h0.014   c0.79-0.508,1.537-0.889,2.252-1.142c0.715-0.254,1.399-0.395,2.013-0.395c0.648,0,1.127,0.155,1.466,0.437   c0.352,0.282,0.536,0.691,0.536,1.206c0,0.333-0.088,0.666-0.296,1.008c-0.19,0.338-0.504,0.719-0.945,1.114l-0.74,0.65   c-0.829,0.76-1.368,1.387-1.632,1.895c-0.258,0.507-0.384,1.073-0.384,1.714v0.571c0,0,0,0,0,0.012c0,0.016,0,0.016,0,0.016   c0.007,0.021,0.014,0.029,0.024,0.029c0.003,0.001,0.011,0.021,0.018,0.027c0.011,0,0.015,0,0.025,0c0.003,0,0.014,0,0.018,0h4.166   c0.011,0,0.028,0,0.028,0s0.014,0,0.028,0c0-0.007,0.003-0.026,0.014-0.027c0.015,0,0.015-0.009,0.015-0.029c0,0,0,0,0-0.016   c0-0.012,0-0.012,0-0.012v-0.536c0-0.32,0.112-0.62,0.257-0.896c0.166-0.261,0.493-0.656,1.012-1.135l0.732-0.648   c0.733-0.686,1.24-1.317,1.551-1.925c0.311-0.606,0.479-1.311,0.479-2.072c0-1.488-0.508-2.608-1.522-3.383   C19.496,6.683,18.044,6.289,16.14,6.289z M13.708,19.676c-0.007,0-0.014,0.016-0.018,0.028c-0.01,0-0.018,0-0.024,0.021   c0,0.007,0,0.007,0,0.013c0,0.016,0,0.022,0,0.022v4.089c0,0,0,0.011,0,0.027c0,0,0,0,0,0.015c0.007,0.014,0.014,0.014,0.024,0.014   c0.003,0.021,0.011,0.029,0.018,0.029c0.011,0,0.015,0,0.025,0c0.003,0,0.014,0,0.018,0h4.166c0.011,0,0.028,0,0.028,0   s0.014,0,0.028,0c0,0,0.003-0.009,0.014-0.029c0.015,0,0.015,0,0.015-0.014c0-0.015,0-0.015,0-0.015c0-0.017,0-0.027,0-0.027   v-4.089c0,0,0-0.007,0-0.022c0-0.006,0-0.006,0-0.013c0-0.021,0-0.021-0.015-0.021c-0.01-0.013-0.014-0.028-0.014-0.028   c-0.014,0-0.028,0-0.028,0s-0.018,0-0.028,0H13.75c-0.003,0-0.014,0-0.018,0C13.723,19.676,13.719,19.676,13.708,19.676z"/>
</g>
</svg>